<svg width="26" height="36" viewBox="0 0 26 36" fill="none" xmlns="http://www.w3.org/2000/svg">
<path d="M13 0C5.88009 0 0.0869751 5.79277 0.0869751 12.913C0.0869751 17.8519 1.38874 19.5671 12.024 35.4784C12.2418 35.8043 12.6079 36 13 36C13.3921 36 13.7581 35.8043 13.976 35.4784C24.6109 19.5726 25.913 17.8002 25.913 12.9131C25.913 5.79277 20.1199 0 13 0ZM13 18.7826C9.76338 18.7826 7.13046 16.1497 7.13046 12.913C7.13046 9.67641 9.76338 7.04348 13 7.04348C16.2366 7.04348 18.8696 9.67641 18.8696 12.913C18.8696 16.1497 16.2366 18.7826 13 18.7826Z" fill="black"/>
</svg>
