<svg width="43" height="52" viewBox="0 0 43 52" fill="none" xmlns="http://www.w3.org/2000/svg">
<path fill-rule="evenodd" clip-rule="evenodd" d="M30.373 0.0690788C34.4437 -0.511584 38.0857 2.6424 38.0857 6.74831V10.1255C41.0085 11.6681 43 14.7343 43 18.2649V42.7995C43 47.8809 38.8747 52 33.7857 52H9.21428C4.12537 52 0 47.8809 0 42.7995V8.45097C0 8.42815 0.000417625 8.40544 0.00122848 8.38284C0.000417625 8.34753 0 8.31211 0 8.2766C0 6.05314 1.63739 4.16802 3.84182 3.85358L30.373 0.0690788ZM3.68571 12.7445V42.7995C3.68571 45.8484 6.16094 48.3198 9.21428 48.3198H33.7857C36.839 48.3198 39.3143 45.8484 39.3143 42.7995V18.2649C39.3143 15.2161 36.839 12.7445 33.7857 12.7445H3.68571ZM4.47463 9.06434H34.4V6.74831C34.4 4.88198 32.7446 3.44834 30.8941 3.71229L4.36305 7.49679C3.9744 7.55224 3.68571 7.88459 3.68571 8.2766C3.68571 8.71165 4.03893 9.06434 4.47463 9.06434ZM9.82857 25.6252C9.82857 24.6089 10.6537 23.7851 11.6714 23.7851H31.3286C32.3463 23.7851 33.1714 24.6089 33.1714 25.6252C33.1714 26.6416 32.3463 27.4653 31.3286 27.4653H11.6714C10.6537 27.4653 9.82857 26.6416 9.82857 25.6252ZM9.82857 34.2123C9.82857 33.1961 10.6537 32.3722 11.6714 32.3722H25.1857C26.2035 32.3722 27.0286 33.1961 27.0286 34.2123C27.0286 35.2288 26.2035 36.0524 25.1857 36.0524H11.6714C10.6537 36.0524 9.82857 35.2288 9.82857 34.2123Z" fill="#148887"/>
</svg>
